Coordinates
version=1
nRows=24
nColumns=38
inDegrees=no

Units are S.I. units (second, meters, Newtons, ...)
If the header above contains a line with 'inDegrees', this indicates whether rotational values are in degrees (yes) or radians (no).

endheader
time	pelvis_tilt	pelvis_list	pelvis_rotation	pelvis_tx	pelvis_ty	pelvis_tz	hip_flexion_r	hip_adduction_r	hip_rotation_r	knee_angle_r	ankle_angle_r	subtalar_angle_r	mtp_angle_r	hip_flexion_l	hip_adduction_l	hip_rotation_l	knee_angle_l	ankle_angle_l	subtalar_angle_l	mtp_angle_l	lumbar_extension	lumbar_bending	lumbar_rotation	arm_flex_r	arm_add_r	arm_rot_r	elbow_flex_r	pro_sup_r	wrist_flex_r	wrist_dev_r	arm_flex_l	arm_add_l	arm_rot_l	elbow_flex_l	pro_sup_l	wrist_flex_l	wrist_dev_l
0	2.68933	1.28914	-0.961863	1.00829	-0.736389	0.966079	0.132502	0.061409	-0.345276	0.402337	-0.00588406	0	0	-0.147054	-0.227603	0.122167	1.1411	0.0714387	0	0	-0.330392	0.232511	0.0172126	0.151069	-0.379658	-0.225706	1.34549	1.5708	0	0	0.111354	-0.321521	-0.06574	1.35562	0.968708	0	0
0.01	2.64976	1.27771	-0.940809	1.01188	-0.727727	0.97038	0.117586	0.0886857	-0.329657	0.390014	-0.0307691	0	0	-0.127114	-0.241881	0.0810494	1.16155	0.0813334	0	0	-0.345691	0.243277	0.043174	0.156687	-0.384393	-0.224431	1.34131	1.5708	0	0	0.119115	-0.308144	-0.0740602	1.34684	0.971256	0	0
0.02	2.66393	1.27955	-0.962125	1.01402	-0.717215	0.973272	0.101711	0.0928968	-0.311525	0.380519	-0.0380783	0	0	-0.11053	-0.228939	0.0814599	1.17146	0.0979567	0	0	-0.34985	0.234895	0.0521847	0.155206	-0.384041	-0.226332	1.3388	1.5708	0	0	0.120175	-0.307924	-0.0723669	1.34459	0.971947	0	0
0.03	2.64152	1.26969	-0.955249	1.01649	-0.707583	0.976658	0.0792503	0.116973	-0.279238	0.360589	-0.0550525	0	0	-0.0995343	-0.235675	0.0681628	1.17776	0.112892	0	0	-0.364093	0.244629	0.075525	0.152773	-0.375221	-0.229065	1.29749	1.5708	0	0	0.125364	-0.301568	-0.0711855	1.33789	0.973547	0	0
0.04	2.70641	1.28064	-1.0141	1.01714	-0.696109	0.979126	0.0609124	0.0965873	-0.285369	0.354786	-0.0443798	0	0	-0.082156	-0.202505	0.079621	1.17655	0.122825	0	0	-0.360656	0.219088	0.0653885	0.15429	-0.382174	-0.229817	1.33494	1.5708	0	0	0.122634	-0.306158	-0.0709888	1.33877	0.973884	0	0
0.05	2.79639	1.28997	-1.09178	1.01638	-0.683515	0.980591	0.0328871	0.0757025	-0.265752	0.339495	-0.0279328	0	0	-0.0693611	-0.163033	0.0940691	1.17238	0.135664	0	0	-0.356315	0.193541	0.0491118	0.147418	-0.377366	-0.232465	1.33486	1.5708	0	0	0.117403	-0.311491	-0.0688998	1.3414	0.972856	0	0
0.06	2.78429	1.28543	-1.0899	1.01856	-0.673613	0.983345	0.0118013	0.0899929	-0.245459	0.321286	-0.034662	0	0	-0.055123	-0.165518	0.0814547	1.16734	0.14689	0	0	-0.364117	0.195588	0.062849	0.150281	-0.37944	-0.232533	1.33397	1.5708	0	0	0.120189	-0.308617	-0.0690291	1.33824	0.971926	0	0
0.07	2.84334	1.28758	-1.14913	1.01922	-0.662853	0.985509	-0.0114759	0.0758828	-0.244904	0.312235	-0.0243121	0	0	-0.0450168	-0.140892	0.0793637	1.15514	0.157537	0	0	-0.369143	0.177795	0.0618697	0.149998	-0.377825	-0.233406	1.33306	1.5708	0	0	0.121101	-0.310566	-0.0677871	1.33769	0.971213	0	0
0.08	2.80359	1.27787	-1.13128	1.02242	-0.654822	0.989049	-0.025774	0.0924639	-0.249128	0.307247	-0.0326064	0	0	-0.0336316	-0.156336	0.0523054	1.1416	0.167463	0	0	-0.386396	0.186119	0.08987	0.158386	-0.38402	-0.232544	1.33182	1.5708	0	0	0.129158	-0.304317	-0.0688695	1.33139	0.97259	0	0
0.09	2.8226	1.2775	-1.1572	1.02393	-0.644725	0.991037	-0.044009	0.0902084	-0.242384	0.299881	-0.0258737	0	0	-0.0211066	-0.148477	0.039806	1.12498	0.178643	0	0	-0.391812	0.177748	0.0971134	0.158754	-0.385864	-0.232719	1.33204	1.5708	0	0	0.130397	-0.304515	-0.0689032	1.33048	0.973501	0	0
0.1	2.84361	1.27679	-1.18514	1.0253	-0.634678	0.992895	-0.0621199	0.0868038	-0.235177	0.2937	-0.0187266	0	0	-0.00980862	-0.140856	0.0258436	1.10482	0.18876	0	0	-0.397701	0.168963	0.103652	0.160586	-0.386626	-0.231027	1.33156	1.5708	0	0	0.131489	-0.304267	-0.069978	1.32961	0.974054	0	0
0.11	2.8655	1.27567	-1.21365	1.02651	-0.624697	0.994599	-0.0801548	0.082765	-0.227997	0.288105	-0.0115045	0	0	0.000601571	-0.133583	0.0113057	1.08167	0.197547	0	0	-0.403692	0.160198	0.109445	0.163299	-0.386732	-0.227567	1.33073	1.5708	0	0	0.132375	-0.30381	-0.0716845	1.32883	0.974836	0	0
0.12	2.88841	1.27391	-1.24364	1.02768	-0.614789	0.99621	-0.0985332	0.0782192	-0.220552	0.282627	-0.00407707	0	0	0.00942346	-0.126558	-0.0042751	1.05515	0.204738	0	0	-0.410253	0.150997	0.115515	0.166078	-0.386262	-0.22556	1.32998	1.5708	0	0	0.133165	-0.303363	-0.0738445	1.32844	0.977719	0	0
0.13	2.90807	1.27311	-1.26841	1.02859	-0.604902	0.997483	-0.114473	0.073772	-0.216743	0.278957	0.00436773	0	0	0.0202436	-0.120273	-0.0176002	1.02797	0.212256	0	0	-0.414794	0.143146	0.119324	0.168377	-0.385795	-0.223918	1.32976	1.5708	0	0	0.13315	-0.303163	-0.0759143	1.32873	0.977665	0	0
0.14	2.92864	1.27174	-1.29442	1.02948	-0.595046	0.998675	-0.130329	0.0689485	-0.211798	0.276848	0.0130831	0	0	0.0294138	-0.114232	-0.031666	0.997831	0.218148	0	0	-0.419922	0.134935	0.123158	0.170499	-0.384769	-0.223277	1.33012	1.5708	0	0	0.13358	-0.30248	-0.0783845	1.32851	0.978064	0	0
0.15	2.94974	1.27018	-1.32051	1.03024	-0.585197	0.999692	-0.145618	0.0636848	-0.206888	0.276006	0.0225711	0	0	0.0379486	-0.108499	-0.0459539	0.965911	0.222771	0	0	-0.424814	0.126666	0.126599	0.172096	-0.383496	-0.223429	1.33101	1.5708	0	0	0.134	-0.302088	-0.0803886	1.32838	0.978632	0	0
0.16	2.96251	1.26819	-1.3392	1.03098	-0.574943	1.00035	-0.160739	0.0608478	-0.20074	0.275557	0.0326375	0	0	0.0483592	-0.117804	-0.085499	0.938575	0.227826	0	0	-0.428217	0.120827	0.131184	0.172286	-0.382891	-0.223587	1.33297	1.5708	0	0	0.132566	-0.302024	-0.0822102	1.3295	0.979414	0	0
0.17	2.98431	1.26676	-1.36542	1.03148	-0.565089	1.001	-0.174167	0.054486	-0.195195	0.277742	0.0432019	0	0	0.0558075	-0.112115	-0.101009	0.903472	0.232237	0	0	-0.432382	0.112406	0.133575	0.173441	-0.382067	-0.223814	1.33442	1.5708	0	0	0.13237	-0.30205	-0.0839727	1.33041	0.979978	0	0
0.18	3.0286	1.26345	-1.41309	1.03181	-0.555876	1.00214	-0.188838	0.0403381	-0.190834	0.282473	0.0543453	0	0	0.0517206	-0.0826018	-0.0815073	0.847861	0.232851	0	0	-0.441425	0.0969642	0.13329	0.176934	-0.379961	-0.224255	1.33454	1.5708	0	0	0.134549	-0.302842	-0.086091	1.33129	0.982225	0	0
0.19	3.02859	1.2643	-1.4172	1.03198	-0.545275	1.00174	-0.197658	0.0399376	-0.185925	0.287154	0.0662888	0	0	0.0696841	-0.100171	-0.131143	0.829081	0.240656	0	0	-0.439304	0.0956416	0.136304	0.17556	-0.38127	-0.223216	1.33748	1.5708	0	0	0.130554	-0.302225	-0.0881343	1.33403	0.981513	0	0
0.2	3.04753	1.264	-1.43919	1.03198	-0.535254	1.00173	-0.207431	0.0332524	-0.18143	0.293267	0.0782037	0	0	0.077343	-0.0946548	-0.144616	0.790739	0.243914	0	0	-0.44051	0.0885126	0.136984	0.176311	-0.382222	-0.21911	1.33817	1.5708	0	0	0.128696	-0.302394	-0.0901216	1.33603	0.982741	0	0
0.21	3.06567	1.26347	-1.46031	1.03191	-0.525161	1.00161	-0.217621	0.0268349	-0.177278	0.298974	0.0904454	0	0	0.083845	-0.0893667	-0.158022	0.750263	0.246417	0	0	-0.441416	0.0815048	0.138549	0.176212	-0.381538	-0.222376	1.33913	1.5708	0	0	0.127957	-0.302303	-0.09051	1.33717	0.982809	0	0
0.22	3.08074	1.26303	-1.4773	1.03166	-0.514986	1.00133	-0.22826	0.0215055	-0.174571	0.303524	0.1023	0	0	0.0900498	-0.0846857	-0.169606	0.708511	0.248272	0	0	-0.441589	0.0758817	0.139188	0.176074	-0.381976	-0.22195	1.33965	1.5708	0	0	0.12745	-0.301728	-0.0910133	1.33771	0.982294	0	0
0.23	3.09338	1.26264	-1.49134	1.0313	-0.504739	1.00092	-0.239355	0.0170552	-0.172494	0.307005	0.113749	0	0	0.0956744	-0.0803097	-0.1791	0.665665	0.249296	0	0	-0.441325	0.0711906	0.139696	0.175818	-0.382542	-0.22157	1.33976	1.5708	0	0	0.12724	-0.301258	-0.0909014	1.33792	0.981785	0	0
